<svg id="b62b3b16-341e-4918-86b6-45f256010603" data-name="Layer 2" xmlns="http://www.w3.org/2000/svg" viewBox="0 0 121.15 121.15"><defs><style>.a33ec73e-1c52-4a48-b55b-b3a5bf69be0f{fill:#231f20;}</style></defs><path class="a33ec73e-1c52-4a48-b55b-b3a5bf69be0f" d="M118.88,44.3c-.25-.85-.51-1.7-.79-2.54a60,60,0,0,0-8.5-16.55c-.46-.63-.93-1.26-1.42-1.88A61,61,0,0,0,94.43,10.57c-.6-.4-1.2-.79-1.81-1.17a59.86,59.86,0,0,0-17.3-7.35c-.68-.18-1.35-.33-2-.48a61.25,61.25,0,0,0-18.75-1c-.7.06-1.39.15-2.08.24a60.41,60.41,0,0,0-17.87,5.3c-.68.33-1.36.66-2,1A60.69,60.69,0,0,0,17.68,18c-.58.58-1.15,1.18-1.7,1.78A60.72,60.72,0,0,0,5.8,34.92q-.6,1.26-1.14,2.55A60,60,0,0,0,.29,54.89C.19,55.92.11,57,.07,58S0,59.87,0,60.81A60.58,60.58,0,0,0,1.82,75.6q.42,1.66.93,3.3a60.3,60.3,0,0,0,7.59,15.77q1,1.53,2.16,3a60.77,60.77,0,0,0,12.43,12.12c1,.75,2.06,1.46,3.13,2.14a60,60,0,0,0,15.84,7.13c1.22.36,2.47.67,3.73.94a60.66,60.66,0,0,0,12.95,1.39c1.5,0,3-.06,4.48-.16,1.28-.1,2.55-.23,3.81-.4a60.43,60.43,0,0,0,16.85-4.89c1.16-.53,2.3-1.09,3.42-1.7a60.36,60.36,0,0,0,14.18-10.51c.85-.84,1.67-1.71,2.47-2.6a60.84,60.84,0,0,0,9.8-14.92c.46-1,.9-2,1.31-3A60,60,0,0,0,121,65.49c.08-1,.13-2,.16-3,0-.57,0-1.14,0-1.72A60.78,60.78,0,0,0,118.88,44.3Zm-8.07-7.95,5.89,5.81-6.86,2-.6-6.6Zm-11.2-15.7,7.52,3.44-5.77,4.2-2.82-6ZM83.71,9.72l8.25.66L88,16.3l-4.7-4.66ZM73,2.68,71.29,9.61l-6-2.77-.24-2ZM52.57,1.93,53.32,9l-6.6-.54-.89-1.76ZM33.11,8.22l3.14,6.41-6.39,1.75L28.41,15ZM17,20.78l5.14,5L16.7,29.56l-1.81-.77ZM12.63,41,8.85,46.45l-2-.1L6.1,38.11ZM1.82,58.11l7.12.49L7.25,65l-1.88.58ZM4.63,78.36l6.86-2,.6,6.59-1.57,1.19ZM21.72,99.88,14.2,96.44,20,92.23l2.82,6Zm15.9,10.93-8.25-.66,4-5.92,4.7,4.66Zm10.7,7L50,110.91l6,2.78.24,2Zm20.44.75-.75-7.1,6.6.55.89,1.76ZM78.84,95.84l6-.49-6.46-2.1L65.81,74.65l8.34,18.79h0l-4.52-2.32L64.87,86l11.55,19.44-1.72,4.3-9.12-9.81h0l5.79,1.59L66,97.31,60.58,75.54,62,96.05l-3.46-3.73-2.7-6.45L60,108.09l-3.09,3.45L51.72,99.2h0l4.9,3.47L53,96.9l2.35-22.31L49.67,94.35h0l-2-4.69-.34-7L43.71,105l-4.09,2.19L39,93.79h0l3.41,4.94-1.42-6.65,9.84-20.17L38.68,88.53h0l-.26-5.08,2.08-6.68L29.44,96.49l-4.59.66,3.94-12.81h0l1.51,5.81.95-6.74L47.39,67.83l-17,11.48h0l1.49-4.86,4.24-5.58L18.93,83.62l-4.53-1L22.48,72h0l-.57,6,3.2-6L45.6,62.83l-20,5h0l3.07-4.06,5.89-3.79-21.15,8L9.52,65.49l11.25-7.27h0L18.2,63.64l5.05-4.55,22.38-1.57L25.19,55.36h0l4.27-2.76,6.83-1.55-22.61.28-2.86-3.64,13.05-3h0L19.6,48.91l6.31-2.54,21.57,6.18L29,43.52h0l5-1.13,6.94.88L19.57,35.8l-1.45-4.41,13.3,1.66h0L26,35.55l6.8-.23L50.91,48.5,36.64,33.7h0l5,.62,6.22,3.21L30.41,23.22l.15-4.63,11.93,6.1h0l-6,.48L43,27.28l12.55,18.6L47.17,27.09h0l4.53,2.32,4.75,5.14L44.91,15.11l1.72-4.31,9.12,9.82h0L50,19l5.36,4.19L60.75,45l-1.42-20.5L62.8,28.2l2.7,6.46L61.3,12.44,64.39,9l5.22,12.34-4.9-3.48,3.6,5.77L66,45.94l5.68-19.76h0l2,4.68.34,7,3.65-22.32,4.09-2.19.67,13.38L79,21.8l1.41,6.65L70.55,48.62,82.65,32h0l.25,5.07-2.07,6.69L91.89,24l4.59-.66-3.94,12.8L91,30.38l-1,6.73L73.94,52.7,91,41.22l-1.5,4.86-4.23,5.57L102.4,36.9l4.54,1L98.85,48.54l.57-6-3.2,6L75.73,57.7l20-5-3.07,4-5.89,3.79,21.15-8L111.81,55l-11.25,7.28h0l2.57-5.42-5,4.54L75.7,63l20.44,2.17-4.27,2.76L85,69.47l22.61-.28,2.86,3.65-13.05,3h0l4.27-4.22-6.31,2.55L73.85,68l18.47,9-5,1.14-6.94-.88,21.34,7.47,1.45,4.4-13.3-1.66h0L95.37,85l-6.8.24L70.42,72l14.27,14.8-5-.63L73.42,83l17.5,14.32-.15,4.63-11.93-6.1Zm9.38,16.47-3.13-6.42,6.38-1.74,1.45,1.34Zm16.14-12.56-5.14-5L104.63,91l1.81.76Zm4.34-20.23,3.78-5.44,2,.1.78,8.24Zm3.69-17.59,1.69-6.41L116,55l3.55,7.47Z" transform="translate(0 -0.24)"/></svg>